<svg xmlns="http://www.w3.org/2000/svg" viewBox="0 0 24 24" fill="none" stroke="#222" stroke-width="1.5" stroke-linecap="round" stroke-linejoin="round">
  <path d="M4 13h16a8 7 0 0 1-16 0Z"/>
  <path d="M2.5 13h19"/>
  <path d="M4.6 13C4 11.2 5.4 10 6.7 10.6 6.3 8.9 8 8 9.2 9 9.5 7.2 11.6 6.8 12.4 8.3 13.4 7 15.4 7.5 15.4 9.3 16.6 8.6 18.2 9.6 17.8 11.2 19.2 10.9 20 12.1 19.4 13Z"/>
  <circle cx="11.6" cy="10.6" r="1.1"/>
  <path d="M8.2 12.6c.3-1 .3-1.9 0-2.7M15.2 12.4c-.3-1-.3-1.9 0-2.6"/>
</svg>
